<?xml version="1.0" encoding="utf-8"?>
<!-- Generator: Adobe Illustrator 22.0.1, SVG Export Plug-In . SVG Version: 6.00 Build 0)  -->
<svg version="1.1" id="Layer_1" xmlns="http://www.w3.org/2000/svg" xmlns:xlink="http://www.w3.org/1999/xlink" x="0px" y="0px"
	 viewBox="0 0 48 48" style="enable-background:new 0 0 48 48;" xml:space="preserve">
<style type="text/css">
	.st0{fill:none;}
	.st1{fill:#315786;}
	.st2{fill:#EF0920;}
</style>
<path class="st0" d="M0,0h48v48H0V0z"/>
<g>
	<path class="st1" d="M6.8,7.8C3.1,7.8,0,10.8,0,14.6c0,5.1,6.8,12.7,6.8,12.7s6.8-7.6,6.8-12.7C13.7,10.8,10.6,7.8,6.8,7.8z
		 M6.8,17.1c-1.4,0-2.4-1.1-2.4-2.4s1.1-2.4,2.4-2.4s2.4,1.1,2.4,2.4S8.2,17.1,6.8,17.1z"/>
	<rect x="18.1" y="7.8" class="st2" width="29.9" height="6.5"/>
	<rect x="18.1" y="20.8" class="st2" width="29.9" height="6.5"/>
	<rect y="33.7" class="st2" width="48" height="6.5"/>
</g>
</svg>
