<?xml version="1.0" encoding="utf-8"?>
<!-- Generator: Adobe Illustrator 22.0.1, SVG Export Plug-In . SVG Version: 6.00 Build 0)  -->
<svg version="1.1" id="Layer_1" xmlns="http://www.w3.org/2000/svg" xmlns:xlink="http://www.w3.org/1999/xlink" x="0px" y="0px"
	 viewBox="0 0 32 32" style="enable-background:new 0 0 32 32;" xml:space="preserve">
<style type="text/css">
	.st0{fill:#3D5A98;}
	.st1{fill:#FFFFFF;}
</style>
<g>
	<path id="Blue_1_" class="st0" d="M30.2,32c1,0,1.8-0.8,1.8-1.8V1.8c0-1-0.8-1.8-1.8-1.8H1.8C0.8,0,0,0.8,0,1.8v28.5
		c0,1,0.8,1.8,1.8,1.8H30.2z"/>
	<path id="f" class="st1" d="M22.1,32V19.6h4.2l0.6-4.8h-4.8v-3.1c0-1.4,0.4-2.4,2.4-2.4l2.6,0V5c-0.4-0.1-2-0.2-3.7-0.2
		c-3.7,0-6.2,2.3-6.2,6.4v3.6h-4.2v4.8h4.2V32H22.1z"/>
</g>
</svg>
