<?xml version="1.0" encoding="utf-8"?>
<!-- Generator: Adobe Illustrator 22.0.1, SVG Export Plug-In . SVG Version: 6.00 Build 0)  -->
<svg version="1.1" id="Layer_1" xmlns="http://www.w3.org/2000/svg" xmlns:xlink="http://www.w3.org/1999/xlink" x="0px" y="0px"
	 viewBox="0 0 32 32" style="enable-background:new 0 0 32 32;" xml:space="preserve">
<path d="M16,0C7.2,0,0,7.2,0,16s7.2,16,16,16s16-7.2,16-16S24.8,0,16,0z M12.1,21.4c-3,0-5.4-2.4-5.4-5.4s2.4-5.4,5.4-5.4
	c1.5,0,2.7,0.5,3.6,1.4l-1.5,1.4c-0.4-0.4-1.1-0.8-2.2-0.8c-1.9,0-3.4,1.5-3.4,3.4s1.5,3.4,3.4,3.4c2.2,0,3-1.5,3.1-2.3h-3.1v-1.9
	h5.1c0,0.3,0.1,0.5,0.1,0.9C17.3,19.2,15.3,21.4,12.1,21.4z M25.3,16.8H23v2.3h-1.6v-2.3h-2.3v-1.6h2.3v-2.3H23v2.3h2.3V16.8z"/>
</svg>
