<?xml version="1.0" encoding="utf-8"?>
<!-- Generator: Adobe Illustrator 22.0.1, SVG Export Plug-In . SVG Version: 6.00 Build 0)  -->
<svg version="1.1" id="Layer_1" xmlns="http://www.w3.org/2000/svg" xmlns:xlink="http://www.w3.org/1999/xlink" x="0px" y="0px"
	 viewBox="0 0 32 32" style="enable-background:new 0 0 32 32;" xml:space="preserve">
<style type="text/css">
	.st0{fill:#FF0000;}
	.st1{fill:#FFFFFF;}
</style>
<g id="XMLID_184_">
	<path id="XMLID_182_" class="st0" d="M31.3,8.2c-0.4-1.4-1.5-2.5-2.8-2.8C26,4.7,16,4.7,16,4.7S6,4.7,3.5,5.4
		C2.1,5.8,1,6.9,0.7,8.2C0,10.8,0,16,0,16s0,5.2,0.7,7.8c0.4,1.4,1.5,2.5,2.8,2.8C6,27.3,16,27.3,16,27.3s10,0,12.5-0.7
		c1.4-0.4,2.5-1.5,2.8-2.8C32,21.2,32,16,32,16S32,10.8,31.3,8.2z"/>
	<polygon id="XMLID_1355_" class="st1" points="12.7,20.8 21.1,16 12.7,11.2 	"/>
</g>
</svg>
